PathFileType	4	(x/y/z)	S02_P20_T45
DataRate	CameraRate	NumFrames	NumMarkers	Units	OrigDataRate	OrigDataStartFrame	OrigNumFrames
240	240	10	51	mm	240	1	347
Frame#	Time	Sternum			R.Acromium			L.Acromium			Top.Head			R.ASIS			L.ASIS			R.PSIS			L.PSIS			R.Great.Tro			L.Great.Tro			R.Iliac.Crest			L.Iliac.Crest			V.Sacral			R.Thigh.Upper.Post			R.Thigh.Lower.Ant			R.Thigh.Lower.Post			R.Thigh.Upper.Ant			R.Knee.Lat			R.Knee.Med			R.Shank.Upper.Post			R.Shank.Lower.Ant			R.Shank.Lower.Post			R.Shank.Upper.Ant			R.Ankle.Lat			R.Ankle.Med			R.Heel.Upper			R.Heel.Med			R.Heel.Lat			R.Toe.Lat			R.Toe.Med			R.Toe.Tip			L.Thigh.Upper.Post			L.Thigh.Lower.Ant			L.Thigh.Lower.Post			L.Thigh.Upper.Ant			L.Knee.Lat			L.Knee.Med			L.Shank.Upper.Post			L.Shank.Lower.Ant			L.Shank.Lower.Post			L.Shank.Upper.Ant			L.Ankle.Lat			L.Ankle.Med			L.Heel.Upper			L.Heel.Med			L.Heel.Lat			L.Toe.Lat			L.Toe.Med			L.Toe.Tip			Cervical.Spine			Back			
		X1	Y1	Z1	X2	Y2	Z2	X3	Y3	Z3	X4	Y4	Z4	X5	Y5	Z5	X6	Y6	Z6	X7	Y7	Z7	X8	Y8	Z8	X9	Y9	Z9	X10	Y10	Z10	X11	Y11	Z11	X12	Y12	Z12	X13	Y13	Z13	X14	Y14	Z14	X15	Y15	Z15	X16	Y16	Z16	X17	Y17	Z17	X18	Y18	Z18	X19	Y19	Z19	X20	Y20	Z20	X21	Y21	Z21	X22	Y22	Z22	X23	Y23	Z23	X24	Y24	Z24	X25	Y25	Z25	X26	Y26	Z26	X27	Y27	Z27	X28	Y28	Z28	X29	Y29	Z29	X30	Y30	Z30	X31	Y31	Z31	X32	Y32	Z32	X33	Y33	Z33	X34	Y34	Z34	X35	Y35	Z35	X36	Y36	Z36	X37	Y37	Z37	X38	Y38	Z38	X39	Y39	Z39	X40	Y40	Z40	X41	Y41	Z41	X42	Y42	Z42	X43	Y43	Z43	X44	Y44	Z44	X45	Y45	Z45	X46	Y46	Z46	X47	Y47	Z47	X48	Y48	Z48	X49	Y49	Z49	X50	Y50	Z50	X51	Y51	Z51	

1	0	NaN	NaN	NaN	-1378	1322.2	474.04	-1421.6	1330.2	184.16	-1335.6	1606.8	309.48	NaN	NaN	NaN	NaN	NaN	NaN	-1558.9	964.03	375.07	-1561.4	969.19	300.34	-1442.3	806.72	523.85	-1446.5	820.07	132.31	-1449.8	956.38	490.03	-1458.9	963.79	158.99	-1590.4	921.48	332.24	-1487.6	602.38	501.04	-1461.5	512.23	459.89	-1533	525.76	480.47	-1423.8	593.54	478.12	-1538.8	443.81	463.73	-1564.8	439.33	319.77	-1684.1	274.4	449.04	NaN	NaN	NaN	NaN	NaN	NaN	-1620.6	239.3	447.23	-1721.1	104.55	425.05	-1714.3	124.11	339.35	-1786.6	96.522	370.14	-1772.5	63.39	342	-1787	63.965	404.39	-1626.1	44.368	448.88	-1590.8	39.399	343.18	-1541.1	63.476	399.18	-1372.8	593.49	154.25	-1270.6	553.45	167.55	-1338.1	513.06	179.99	-1314.8	634.34	142.37	-1258.1	474.57	178.5	-1267.5	469.56	322.64	-1290.1	288.82	185.11	-1194.2	229.51	190.83	-1267.2	219.46	201.03	-1224.7	297.51	176.09	-1198.6	113.6	206.65	-1180.3	119.8	290.12	-1240.5	59.6	246.18	-1222.5	42.766	280.09	-1224.8	33.62	219.11	-1068.7	80.858	182.44	-1052.1	107.8	286.58	-1003.5	142.09	237.09	-1479.3	1391.6	342.56	-1562.1	1143.7	358.98
2	0.0041667	NaN	NaN	NaN	-1373.4	1321.4	473.27	-1416.4	1329.2	183.36	-1331	1606.1	308.97	NaN	NaN	NaN	NaN	NaN	NaN	-1553.8	962.97	374.39	-1556.4	968.22	299.67	-1437.7	805.83	523.55	-1440.8	819.24	132.15	-1446.9	956	489.91	-1453.6	962.57	158.38	-1585.2	920.43	331.48	-1483	601.55	500.73	-1456.5	511.5	459.79	-1528.2	524.83	480.23	-1419.2	592.69	478.04	-1534.3	442.9	463.52	-1560	438.34	319.54	-1681.3	275.15	448.93	-1638.7	174.6	427.5	NaN	NaN	NaN	-1618.1	239.28	447.21	-1720.5	105.66	425.38	-1713.4	125.1	339.8	-1785.9	98.281	370.45	-1772.1	65.178	342.19	-1786.6	65.631	404.58	-1625.9	44.238	448.93	-1590.7	39.379	343.2	-1541.2	63.357	399.2	-1367.6	592.65	154.29	-1265.3	552.65	167.84	-1333.9	512.47	180.05	-1309.7	633.47	142.77	-1253.2	473.47	178.86	-1262.6	468.71	322.41	-1286.7	287.82	185.09	-1191.5	227.61	191.6	-1264.9	218.49	201.22	-1221.2	295.98	176.66	-1197.1	112.26	207.19	-1179.3	117.84	290.65	-1239.6	58.987	246.38	-1221.9	41.651	280.28	-1224	32.972	219.24	-1067.4	78.642	183.26	-1050.9	104.93	287.58	-1001.9	139.01	238.41	-1474.6	1390.8	341.68	-1557.1	1142.7	358.16
3	0.0083333	NaN	NaN	NaN	-1368.6	1320.6	472.48	-1411	1328.2	182.51	-1326.1	1605.3	308.43	NaN	NaN	NaN	NaN	NaN	NaN	-1548.4	961.88	373.68	-1551.3	967.23	298.97	-1432.9	804.91	523.24	-1434.9	818.41	131.97	-1443.8	955.6	489.76	-1448	961.34	157.75	-1579.8	919.34	330.7	-1478.1	600.69	500.4	-1451.2	510.73	459.69	-1523.2	523.86	479.97	-1414.4	591.82	477.96	-1529.5	441.96	463.32	-1554.8	437.3	319.31	-1678.3	275.98	448.82	-1636.7	175.11	427.72	NaN	NaN	NaN	-1615.6	239.3	447.2	-1719.9	106.87	425.75	-1712.3	126.17	340.28	-1785.2	100.19	370.78	-1771.6	67.123	342.4	-1786.2	67.448	404.77	-1625.7	44.107	448.98	-1590.7	39.361	343.22	-1541.3	63.223	399.23	-1362.2	591.78	154.35	-1259.8	551.81	168.13	-1329.4	511.83	180.12	-1304.4	632.56	143.16	-1248.2	472.33	179.22	-1257.6	467.83	322.19	-1283.2	286.8	185.09	-1188.7	225.68	192.42	-1262.6	217.48	201.43	-1217.6	294.42	177.27	-1195.5	110.91	207.76	-1178.3	115.85	291.2	-1238.6	58.425	246.59	-1221.3	40.564	280.48	-1223.2	32.373	219.37	-1066	76.345	184.1	-1049.7	101.92	288.61	-1000.2	135.77	239.76	-1469.6	1389.9	340.75	-1551.8	1141.7	357.3
4	0.0125	-1285	1072.9	319.49	-1363.7	1319.8	471.65	-1405.4	1327.2	181.63	-1321.1	1604.6	307.86	NaN	NaN	NaN	NaN	NaN	NaN	-1542.8	960.77	372.95	-1545.9	966.25	298.26	-1427.9	803.97	522.92	-1428.7	817.58	131.77	-1440.4	955.17	489.58	-1442.2	960.11	157.1	-1574.3	918.25	329.9	-1473.1	599.83	500.07	-1445.8	509.94	459.59	-1517.9	522.85	479.7	-1409.3	590.93	477.87	-1524.5	440.99	463.14	-1549.4	436.21	319.09	-1675.2	276.87	448.71	-1634.6	175.66	427.97	NaN	NaN	NaN	-1612.9	239.37	447.23	-1719.2	108.17	426.14	-1711.1	127.32	340.81	-1784.3	102.25	371.13	-1771	69.237	342.62	-1785.7	69.427	404.98	-1625.5	43.978	449.04	-1590.6	39.344	343.26	-1541.5	63.073	399.25	-1356.7	590.89	154.41	-1254.2	550.92	168.42	-1324.8	511.17	180.2	-1298.9	631.63	143.54	-1243	471.16	179.59	-1252.3	466.93	322	-1279.5	285.78	185.09	-1185.8	223.73	193.26	-1260	216.45	201.64	-1213.8	292.84	177.92	-1193.9	109.56	208.35	-1177.2	113.85	291.75	-1237.5	57.933	246.82	-1220.7	39.531	280.68	-1222.4	31.842	219.52	-1064.7	73.986	184.95	-1048.5	98.815	289.65	-998.42	132.38	241.13	-1464.5	1389	339.76	-1546.4	1140.6	356.39
5	0.016667	-1279.8	1072.1	319.07	-1358.7	1319	470.8	-1399.6	1326.2	180.7	-1315.9	1603.8	307.27	NaN	NaN	NaN	NaN	NaN	NaN	-1537	959.63	372.21	-1540.4	965.28	297.53	-1422.7	803.01	522.59	-1422.4	816.78	131.56	-1436.7	954.71	489.37	-1436.3	958.89	156.43	-1568.5	917.15	329.08	-1467.9	598.98	499.72	-1440.1	509.12	459.5	-1512.4	521.81	479.41	-1404	590.04	477.78	-1519.3	440.01	462.97	-1543.8	435.08	318.88	-1671.8	277.85	448.6	-1632.3	176.27	428.25	NaN	NaN	NaN	-1610.1	239.49	447.29	-1718.3	109.57	426.56	-1709.8	128.57	341.37	-1783.3	104.48	371.5	-1770.4	71.529	342.85	-1785.1	71.579	405.2	-1625.4	43.856	449.11	-1590.6	39.331	343.3	-1541.6	62.905	399.28	-1351.1	589.99	154.48	-1248.5	550.01	168.69	-1320.1	510.48	180.3	-1293.3	630.68	143.9	-1237.7	469.97	179.96	-1247	466.04	321.83	-1275.7	284.78	185.1	-1182.8	221.79	194.13	-1257.4	215.4	201.86	-1209.9	291.26	178.58	-1192.1	108.24	208.95	-1176	111.88	292.32	-1236.4	57.53	247.05	-1220.1	38.571	280.89	-1221.5	31.397	219.66	-1063.3	71.583	185.81	-1047.2	95.618	290.69	-996.59	128.87	242.51	-1459.3	1388.1	338.73	-1540.8	1139.6	355.44
6	0.020833	-1274.4	1071.2	318.64	-1353.6	1318.2	469.93	-1393.7	1325.1	179.73	-1310.5	1603.1	306.66	NaN	NaN	NaN	-1304.2	905.93	225.51	-1531.1	958.5	371.47	-1534.8	964.33	296.81	-1417.4	802.04	522.25	-1416	816.01	131.34	-1432.7	954.23	489.14	-1430.2	957.71	155.76	-1562.6	916.06	328.26	-1462.5	598.14	499.36	-1434.2	508.29	459.42	-1506.6	520.75	479.12	-1398.5	589.16	477.69	-1513.9	439.01	462.84	-1537.9	433.91	318.68	-1668.3	278.9	448.51	-1629.9	176.94	428.57	NaN	NaN	NaN	-1607.1	239.66	447.4	-1717.4	111.08	427.01	-1708.3	129.91	341.96	-1782.1	106.9	371.9	-1769.7	74.011	343.09	-1784.5	73.917	405.44	-1625.2	43.745	449.18	-1590.6	39.326	343.35	-1541.7	62.717	399.31	-1345.4	589.1	154.55	-1242.8	549.07	168.96	-1315.2	509.76	180.41	-1287.7	629.72	144.23	-1232.3	468.78	180.33	-1241.5	465.14	321.68	-1271.8	283.81	185.12	-1179.7	219.88	195.01	-1254.6	214.35	202.09	-1205.9	289.7	179.27	-1190.4	106.96	209.56	-1174.7	109.96	292.9	-1235.4	57.226	247.3	-1219.5	37.703	281.1	-1220.7	31.049	219.81	-1061.9	69.155	186.65	-1045.9	92.36	291.72	-994.73	125.26	243.87	-1453.9	1387.2	337.65	-1535.1	1138.6	354.46
7	0.025	-1268.8	1070.4	318.2	-1348.4	1317.5	469.04	-1387.7	1324.2	178.74	-1305	1602.4	306.03	NaN	NaN	NaN	-1298.6	905.26	225.21	-1525	957.37	370.72	-1529	963.42	296.08	-1411.9	801.08	521.9	-1409.4	815.28	131.09	-1428.5	953.74	488.87	-1424	956.57	155.07	-1556.6	915	327.45	-1457.1	597.32	499	-1428.1	507.45	459.35	-1500.7	519.67	478.82	-1392.8	588.3	477.6	-1508.3	438.02	462.75	-1531.8	432.71	318.51	-1664.6	280.05	448.44	-1627.3	177.68	428.93	NaN	NaN	NaN	-1604	239.91	447.56	-1716.3	112.69	427.49	-1706.6	131.35	342.6	-1780.9	109.5	372.32	-1768.8	76.696	343.35	-1783.7	76.453	405.68	-1625	43.65	449.25	-1590.6	39.333	343.41	-1541.8	62.509	399.34	-1339.6	588.22	154.64	-1237	548.12	169.19	-1310.2	509.03	180.55	-1281.9	628.76	144.53	-1226.8	467.58	180.69	-1236	464.27	321.57	-1267.9	282.88	185.16	-1176.6	218.02	195.9	-1251.6	213.31	202.33	-1201.9	288.19	179.97	-1188.6	105.73	210.17	-1173.4	108.1	293.48	-1234.2	57.029	247.54	-1218.9	36.938	281.31	-1220	30.806	219.97	-1060.6	66.722	187.47	-1044.5	89.065	292.73	-992.83	121.57	245.22	-1448.5	1386.3	336.52	-1529.3	1137.6	353.44
8	0.029167	-1263	1069.7	317.74	-1343.2	1316.8	468.14	-1381.6	1323.2	177.71	-1299.4	1601.7	305.39	NaN	NaN	NaN	-1292.7	904.59	224.89	-1518.8	956.25	369.98	-1523.2	962.55	295.36	-1406.3	800.12	521.55	-1402.8	814.61	130.82	-1423.9	953.24	488.58	-1417.7	955.49	154.39	-1550.4	913.96	326.64	-1451.6	596.53	498.64	-1421.8	506.6	459.29	-1494.5	518.58	478.52	-1386.8	587.46	477.52	-1502.4	437.02	462.7	-1525.4	431.47	318.38	-1660.7	281.28	448.38	-1624.6	178.48	429.34	NaN	NaN	NaN	-1600.8	240.23	447.78	-1715.1	114.41	428	-1704.8	132.92	343.27	-1779.4	112.3	372.76	-1767.8	79.598	343.63	-1782.8	79.202	405.95	-1624.8	43.577	449.33	-1590.5	39.357	343.48	-1541.9	62.278	399.37	-1333.9	587.37	154.72	-1231.2	547.15	169.41	-1305	508.28	180.69	-1276.2	627.81	144.78	-1221.4	466.41	181.03	-1230.5	463.42	321.49	-1263.8	282.01	185.2	-1173.4	216.22	196.78	-1248.6	212.3	202.56	-1197.7	286.73	180.68	-1186.7	104.57	210.78	-1172	106.33	294.04	-1233.1	56.943	247.79	-1218.3	36.285	281.52	-1219.2	30.67	220.12	-1059.2	64.302	188.26	-1043.2	85.759	293.71	-990.92	117.82	246.52	-1443	1385.5	335.36	-1523.5	1136.6	352.39
9	0.033333	-1257.1	1069	317.28	-1338	1316.2	467.24	-1375.5	1322.2	176.66	-1293.7	1601.1	304.74	-1296.9	903.32	432.71	-1286.7	903.93	224.57	-1512.5	955.16	369.26	-1517.3	961.73	294.66	-1400.6	799.18	521.2	-1396.1	813.99	130.52	-1419.1	952.75	488.27	-1411.3	954.49	153.71	-1544.3	912.97	325.83	-1446	595.78	498.28	-1415.3	505.77	459.26	-1488.2	517.47	478.22	-1380.7	586.66	477.45	-1496.4	436.03	462.7	-1518.8	430.21	318.27	-1656.6	282.62	448.36	-1621.7	179.36	429.8	NaN	NaN	NaN	-1597.4	240.63	448.05	-1713.7	116.25	428.54	-1702.8	134.61	343.97	-1777.8	115.33	373.24	-1766.6	82.727	343.93	-1781.7	82.177	406.23	-1624.5	43.534	449.42	-1590.5	39.403	343.57	-1542	62.024	399.41	-1328.1	586.56	154.8	-1225.5	546.18	169.59	-1299.8	507.51	180.85	-1270.4	626.88	145	-1215.9	465.27	181.36	-1224.9	462.6	321.44	-1259.7	281.22	185.24	-1170.1	214.5	197.64	-1245.4	211.33	202.78	-1193.6	285.33	181.38	-1184.8	103.49	211.38	-1170.6	104.67	294.59	-1232	56.964	248.04	-1217.8	35.747	281.73	-1218.5	30.639	220.27	-1057.9	61.911	189.02	-1041.8	82.467	294.65	-988.99	114.04	247.76	-1437.4	1384.7	334.15	-1517.5	1135.7	351.32
10	0.0375	-1251.1	1068.3	316.8	-1332.8	1315.6	466.32	-1369.3	1321.4	175.58	-1288	1600.6	304.09	-1292	902.98	432.52	-1280.5	903.3	224.24	-1506.2	954.11	368.54	-1511.3	960.97	293.97	-1394.8	798.27	520.83	-1389.4	813.45	130.19	-1414.1	952.26	487.93	-1404.9	953.58	153.04	-1538	912.03	325.05	-1440.4	595.07	497.93	-1408.7	504.95	459.25	-1481.6	516.35	477.92	-1374.4	585.9	477.38	-1490.2	435.05	462.77	-1511.9	428.92	318.22	-1652.3	284.05	448.36	-1618.6	180.31	430.32	NaN	NaN	NaN	-1593.9	241.11	448.4	-1712.1	118.22	429.13	-1700.6	136.44	344.71	-1775.9	118.59	373.76	-1765.3	86.098	344.25	-1780.5	85.392	406.53	-1624.3	43.529	449.51	-1590.5	39.479	343.67	-1542.1	61.746	399.46	-1322.4	585.79	154.87	-1219.8	545.22	169.74	-1294.5	506.75	181.01	-1264.6	625.98	145.16	-1210.5	464.17	181.67	-1219.4	461.83	321.43	-1255.5	280.51	185.29	-1166.8	212.88	198.48	-1242.2	210.42	203	-1189.4	284.02	182.06	-1183	102.49	211.96	-1169.1	103.12	295.12	-1230.8	57.088	248.29	-1217.2	35.326	281.93	-1217.7	30.706	220.42	-1056.6	59.565	189.74	-1040.5	79.217	295.53	-987.07	110.25	248.94	-1431.8	1384	332.91	-1511.6	1134.8	350.21
